# xmcd
#
# Track frame offsets:
#	150
#	22808
#	42950
#	57620
#	77833
#	94430
#	115480
#	133963
#	154330
#	175655
#	200603
#	224175
#
# Disc length: 3348 seconds
#
# Revision: 1
# Processed by: cddbd v1.5.1PL0 Copyright (c) Steve Scherf et al.
# Submitted via: CDex 1.50Beta5
#
DISCID=b80d120c
DTITLE=さだまさし - 夢唄
DYEAR=1997
DGENRE=
TTITLE0=夢街道
TTITLE1=君は穏やかに春を語れ
TTITLE2=夢一色
TTITLE3=教室のドン・キホーテ
TTITLE4=煌めいて
TTITLE5=幸せブギ
TTITLE6=Dream
TTITLE7=やすらぎ橋
TTITLE8=若葉は限りなくうまれつづけて
TTITLE9=ゆ・ら・ぎ
TTITLE10=夢唄
TTITLE11=流星雨
EXTD=
EXTT0=
EXTT1=
EXTT2=
EXTT3=
EXTT4=
EXTT5=
EXTT6=
EXTT7=
EXTT8=
EXTT9=
EXTT10=
EXTT11=
PLAYORDER=
